<?xml version="1.0" encoding="utf-8" standalone="no"?>
<!DOCTYPE svg PUBLIC "-//W3C//DTD SVG 1.1//EN"
  "http://www.w3.org/Graphics/SVG/1.1/DTD/svg11.dtd">
<svg xmlns:xlink="http://www.w3.org/1999/xlink" width="432pt" height="216pt" viewBox="0 0 432 216" xmlns="http://www.w3.org/2000/svg" version="1.1">
 <metadata>
  <rdf:RDF xmlns:dc="http://purl.org/dc/elements/1.1/" xmlns:cc="http://creativecommons.org/ns#" xmlns:rdf="http://www.w3.org/1999/02/22-rdf-syntax-ns#">
   <cc:Work>
    <dc:type rdf:resource="http://purl.org/dc/dcmitype/StillImage"/>
    <dc:date>2025-11-10T23:10:36.528534</dc:date>
    <dc:format>image/svg+xml</dc:format>
    <dc:creator>
     <cc:Agent>
      <dc:title>Matplotlib v3.7.0, https://matplotlib.org/</dc:title>
     </cc:Agent>
    </dc:creator>
   </cc:Work>
  </rdf:RDF>
 </metadata>
 <defs>
  <style type="text/css">*{stroke-linejoin: round; stroke-linecap: butt}</style>
 </defs>
 <g id="figure_1">
  <g id="patch_1">
   <path d="M 0 216 
L 432 216 
L 432 0 
L 0 0 
z
" style="fill: #ffffff"/>
  </g>
  <g id="axes_1">
   <g id="patch_2">
    <path d="M 20.69 190.12 
L 414.804984 190.12 
L 414.804984 17.195016 
L 20.69 17.195016 
z
" style="fill: #ffffff"/>
   </g>
   <g id="line2d_1">
    <path d="M 20.69 190.12 
L 22.94434 190.021084 
L 25.19868 189.724652 
L 27.45302 189.231654 
L 30.083083 188.410194 
L 32.713146 187.326942 
L 35.34321 185.986621 
L 37.973273 184.395073 
L 40.603336 182.559239 
L 43.609123 180.172329 
L 46.61491 177.490428 
L 49.620696 174.528805 
L 53.002206 170.883679 
L 56.759439 166.475425 
L 60.516673 161.728189 
L 64.649629 156.165175 
L 69.534033 149.209884 
L 75.545606 140.231014 
L 85.314412 125.157957 
L 94.331772 111.394026 
L 99.967622 103.188244 
L 104.852025 96.477998 
L 108.984982 91.170367 
L 112.742215 86.691079 
L 116.123725 82.975519 
L 119.505235 79.586963 
L 122.511022 76.869228 
L 125.516808 74.444666 
L 128.522595 72.327081 
L 131.152658 70.735533 
L 133.782722 69.395212 
L 136.412785 68.31196 
L 139.042848 67.4905 
L 141.672911 66.934413 
L 143.927251 66.670851 
L 146.557315 66.602154 
L 273.176076 66.70107 
L 275.430416 66.997502 
L 277.684756 67.4905 
L 280.314819 68.31196 
L 282.944883 69.395212 
L 285.574946 70.735533 
L 288.205009 72.327081 
L 290.835073 74.162915 
L 293.840859 76.549825 
L 296.846646 79.231726 
L 299.852432 82.193349 
L 303.233942 85.838475 
L 306.991176 90.246729 
L 310.748409 94.993965 
L 314.881366 100.556979 
L 319.765769 107.51227 
L 325.777342 116.491139 
L 335.546149 131.564196 
L 344.563508 145.328128 
L 350.199358 153.53391 
L 355.083762 160.244156 
L 359.216718 165.551787 
L 362.973951 170.031075 
L 366.355461 173.746635 
L 369.736971 177.135191 
L 372.742758 179.852926 
L 375.748545 182.277488 
L 378.754331 184.395073 
L 381.384394 185.986621 
L 384.014458 187.326942 
L 386.644521 188.410194 
L 389.274584 189.231654 
L 391.904648 189.787741 
L 394.158988 190.051303 
L 396.037604 190.12 
L 396.037604 190.12 
" clip-path="url(#pb57c84c240)" style="fill: none; stroke: #dc143c; stroke-width: 2; stroke-linecap: square"/>
   </g>
   <g id="mpl_toolkits.axisartist.axis_artist_1">
    <g id="patch_3">
     <path d="M 20.69 190.12 
L 414.804984 190.12 
L 423.68695 190.12 
" style="fill: none; stroke: #000000; stroke-linecap: round"/>
     <path d="M 419.68695 188.12 
L 423.68695 190.12 
L 419.68695 192.12 
z
" style="stroke: #000000; stroke-linecap: round"/>
    </g>
    <g id="text_1">
     <!-- t [s] -->
     <g transform="translate(207.692023 206.218437) scale(0.1 -0.1)">
      <defs>
       <path id="DejaVuSans-74" d="M 1172 4494 
L 1172 3500 
L 2356 3500 
L 2356 3053 
L 1172 3053 
L 1172 1153 
Q 1172 725 1289 603 
Q 1406 481 1766 481 
L 2356 481 
L 2356 0 
L 1766 0 
Q 1100 0 847 248 
Q 594 497 594 1153 
L 594 3053 
L 172 3053 
L 172 3500 
L 594 3500 
L 594 4494 
L 1172 4494 
z
" transform="scale(0.015625)"/>
       <path id="DejaVuSans-20" transform="scale(0.015625)"/>
       <path id="DejaVuSans-5b" d="M 550 4863 
L 1875 4863 
L 1875 4416 
L 1125 4416 
L 1125 -397 
L 1875 -397 
L 1875 -844 
L 550 -844 
L 550 4863 
z
" transform="scale(0.015625)"/>
       <path id="DejaVuSans-73" d="M 2834 3397 
L 2834 2853 
Q 2591 2978 2328 3040 
Q 2066 3103 1784 3103 
Q 1356 3103 1142 2972 
Q 928 2841 928 2578 
Q 928 2378 1081 2264 
Q 1234 2150 1697 2047 
L 1894 2003 
Q 2506 1872 2764 1633 
Q 3022 1394 3022 966 
Q 3022 478 2636 193 
Q 2250 -91 1575 -91 
Q 1294 -91 989 -36 
Q 684 19 347 128 
L 347 722 
Q 666 556 975 473 
Q 1284 391 1588 391 
Q 1994 391 2212 530 
Q 2431 669 2431 922 
Q 2431 1156 2273 1281 
Q 2116 1406 1581 1522 
L 1381 1569 
Q 847 1681 609 1914 
Q 372 2147 372 2553 
Q 372 3047 722 3315 
Q 1072 3584 1716 3584 
Q 2034 3584 2315 3537 
Q 2597 3491 2834 3397 
z
" transform="scale(0.015625)"/>
       <path id="DejaVuSans-5d" d="M 1947 4863 
L 1947 -844 
L 622 -844 
L 622 -397 
L 1369 -397 
L 1369 4416 
L 622 4416 
L 622 4863 
L 1947 4863 
z
" transform="scale(0.015625)"/>
      </defs>
      <use xlink:href="#DejaVuSans-74"/>
      <use xlink:href="#DejaVuSans-20" x="39.208984"/>
      <use xlink:href="#DejaVuSans-5b" x="70.996094"/>
      <use xlink:href="#DejaVuSans-73" x="110.009766"/>
      <use xlink:href="#DejaVuSans-5d" x="162.109375"/>
     </g>
    </g>
   </g>
   <g id="mpl_toolkits.axisartist.axis_artist_2">
    <defs>
     <path id="m0143a54419" d="M 0 0 
L 3.5 0 
" style="stroke: #000000; stroke-width: 0.8"/>
    </defs>
    <g>
     <use xlink:href="#m0143a54419" x="20.69" y="190.12" style="fill: none; stroke: #000000; stroke-width: 0.8"/>
    </g>
    <g>
     <use xlink:href="#m0143a54419" x="20.69" y="66.602154" style="fill: none; stroke: #000000; stroke-width: 0.8"/>
    </g>
    <g id="text_2">
     <!-- 0 -->
     <g transform="translate(10.8275 192.879375) scale(0.1 -0.1)">
      <defs>
       <path id="DejaVuSans-30" d="M 2034 4250 
Q 1547 4250 1301 3770 
Q 1056 3291 1056 2328 
Q 1056 1369 1301 889 
Q 1547 409 2034 409 
Q 2525 409 2770 889 
Q 3016 1369 3016 2328 
Q 3016 3291 2770 3770 
Q 2525 4250 2034 4250 
z
M 2034 4750 
Q 2819 4750 3233 4129 
Q 3647 3509 3647 2328 
Q 3647 1150 3233 529 
Q 2819 -91 2034 -91 
Q 1250 -91 836 529 
Q 422 1150 422 2328 
Q 422 3509 836 4129 
Q 1250 4750 2034 4750 
z
" transform="scale(0.015625)"/>
      </defs>
      <use xlink:href="#DejaVuSans-30"/>
     </g>
    </g>
    <g id="text_3">
     <!-- 1 -->
     <g transform="translate(10.8275 69.361529) scale(0.1 -0.1)">
      <defs>
       <path id="DejaVuSans-31" d="M 794 531 
L 1825 531 
L 1825 4091 
L 703 3866 
L 703 4441 
L 1819 4666 
L 2450 4666 
L 2450 531 
L 3481 531 
L 3481 0 
L 794 0 
L 794 531 
z
" transform="scale(0.015625)"/>
      </defs>
      <use xlink:href="#DejaVuSans-31"/>
     </g>
    </g>
    <g id="patch_4">
     <path d="M 20.69 190.12 
L 20.69 17.195016 
L 20.69 8.31305 
" style="fill: none; stroke: #000000; stroke-linecap: round"/>
     <path d="M 18.69 12.31305 
L 20.69 8.31305 
L 22.69 12.31305 
z
" style="stroke: #000000; stroke-linecap: round"/>
    </g>
   </g>
   <g id="patch_5">
    <path d="M 23.80497 54.250369 
Q 83.245084 54.250369 142.685198 54.250369 
" style="fill: none; stroke: #000000; stroke-linecap: round"/>
    <path d="M 27.80497 56.250369 
L 23.80497 54.250369 
L 27.80497 52.250369 
" style="fill: none; stroke: #000000; stroke-linecap: round"/>
    <path d="M 138.685198 52.250369 
L 142.685198 54.250369 
L 138.685198 56.250369 
" style="fill: none; stroke: #000000; stroke-linecap: round"/>
   </g>
   <g id="text_4">
    <!-- $t_{ramp}$ -->
    <g transform="translate(71.897934 50.544834) scale(0.1 -0.1)">
     <defs>
      <path id="DejaVuSans-Oblique-74" d="M 2706 3500 
L 2619 3053 
L 1472 3053 
L 1100 1153 
Q 1081 1047 1072 975 
Q 1063 903 1063 863 
Q 1063 663 1183 572 
Q 1303 481 1569 481 
L 2150 481 
L 2053 0 
L 1503 0 
Q 991 0 739 200 
Q 488 400 488 806 
Q 488 878 497 964 
Q 506 1050 525 1153 
L 897 3053 
L 409 3053 
L 500 3500 
L 978 3500 
L 1172 4494 
L 1747 4494 
L 1556 3500 
L 2706 3500 
z
" transform="scale(0.015625)"/>
      <path id="DejaVuSans-Oblique-72" d="M 2853 2969 
Q 2766 3016 2653 3041 
Q 2541 3066 2413 3066 
Q 1953 3066 1609 2717 
Q 1266 2369 1153 1784 
L 800 0 
L 225 0 
L 909 3500 
L 1484 3500 
L 1375 2956 
Q 1603 3259 1920 3421 
Q 2238 3584 2597 3584 
Q 2691 3584 2781 3573 
Q 2872 3563 2963 3538 
L 2853 2969 
z
" transform="scale(0.015625)"/>
      <path id="DejaVuSans-Oblique-61" d="M 3438 1997 
L 3047 0 
L 2472 0 
L 2578 531 
Q 2325 219 2001 64 
Q 1678 -91 1281 -91 
Q 834 -91 548 182 
Q 263 456 263 884 
Q 263 1497 752 1853 
Q 1241 2209 2100 2209 
L 2900 2209 
L 2931 2363 
Q 2938 2388 2941 2417 
Q 2944 2447 2944 2509 
Q 2944 2788 2717 2942 
Q 2491 3097 2081 3097 
Q 1800 3097 1504 3025 
Q 1209 2953 897 2809 
L 997 3341 
Q 1322 3463 1633 3523 
Q 1944 3584 2234 3584 
Q 2853 3584 3176 3315 
Q 3500 3047 3500 2534 
Q 3500 2431 3484 2292 
Q 3469 2153 3438 1997 
z
M 2816 1759 
L 2241 1759 
Q 1534 1759 1195 1570 
Q 856 1381 856 984 
Q 856 709 1029 553 
Q 1203 397 1509 397 
Q 1978 397 2328 733 
Q 2678 1069 2791 1631 
L 2816 1759 
z
" transform="scale(0.015625)"/>
      <path id="DejaVuSans-Oblique-6d" d="M 5747 2113 
L 5338 0 
L 4763 0 
L 5166 2094 
Q 5191 2228 5203 2325 
Q 5216 2422 5216 2491 
Q 5216 2772 5059 2928 
Q 4903 3084 4622 3084 
Q 4203 3084 3875 2770 
Q 3547 2456 3450 1953 
L 3066 0 
L 2491 0 
L 2900 2094 
Q 2925 2209 2937 2307 
Q 2950 2406 2950 2484 
Q 2950 2769 2794 2926 
Q 2638 3084 2363 3084 
Q 1938 3084 1609 2770 
Q 1281 2456 1184 1953 
L 800 0 
L 225 0 
L 909 3500 
L 1484 3500 
L 1375 2956 
Q 1609 3263 1923 3423 
Q 2238 3584 2597 3584 
Q 2978 3584 3223 3384 
Q 3469 3184 3519 2828 
Q 3781 3197 4126 3390 
Q 4472 3584 4856 3584 
Q 5306 3584 5551 3325 
Q 5797 3066 5797 2591 
Q 5797 2488 5784 2364 
Q 5772 2241 5747 2113 
z
" transform="scale(0.015625)"/>
      <path id="DejaVuSans-Oblique-70" d="M 3175 2156 
Q 3175 2616 2975 2859 
Q 2775 3103 2400 3103 
Q 2144 3103 1911 2972 
Q 1678 2841 1497 2591 
Q 1319 2344 1212 1994 
Q 1106 1644 1106 1300 
Q 1106 863 1306 627 
Q 1506 391 1875 391 
Q 2147 391 2380 519 
Q 2613 647 2778 891 
Q 2956 1147 3065 1494 
Q 3175 1841 3175 2156 
z
M 1394 2969 
Q 1625 3272 1939 3428 
Q 2253 3584 2638 3584 
Q 3175 3584 3472 3232 
Q 3769 2881 3769 2247 
Q 3769 1728 3584 1258 
Q 3400 788 3053 416 
Q 2822 169 2531 39 
Q 2241 -91 1919 -91 
Q 1547 -91 1294 64 
Q 1041 219 916 525 
L 556 -1331 
L -19 -1331 
L 922 3500 
L 1497 3500 
L 1394 2969 
z
" transform="scale(0.015625)"/>
     </defs>
     <use xlink:href="#DejaVuSans-Oblique-74" transform="translate(0 0.78125)"/>
     <use xlink:href="#DejaVuSans-Oblique-72" transform="translate(39.208984 -15.625) scale(0.7)"/>
     <use xlink:href="#DejaVuSans-Oblique-61" transform="translate(67.988281 -15.625) scale(0.7)"/>
     <use xlink:href="#DejaVuSans-Oblique-6d" transform="translate(110.883789 -15.625) scale(0.7)"/>
     <use xlink:href="#DejaVuSans-Oblique-70" transform="translate(179.072266 -15.625) scale(0.7)"/>
    </g>
   </g>
   <g id="patch_6">
    <path d="M 392.922634 54.250369 
Q 333.48252 54.250369 274.042407 54.250369 
" style="fill: none; stroke: #000000; stroke-linecap: round"/>
    <path d="M 388.922634 52.250369 
L 392.922634 54.250369 
L 388.922634 56.250369 
" style="fill: none; stroke: #000000; stroke-linecap: round"/>
    <path d="M 278.042407 56.250369 
L 274.042407 54.250369 
L 278.042407 52.250369 
" style="fill: none; stroke: #000000; stroke-linecap: round"/>
   </g>
   <g id="text_5">
    <!-- $t_{ramp}$ -->
    <g transform="translate(322.12967 50.544834) scale(0.1 -0.1)">
     <use xlink:href="#DejaVuSans-Oblique-74" transform="translate(0 0.78125)"/>
     <use xlink:href="#DejaVuSans-Oblique-72" transform="translate(39.208984 -15.625) scale(0.7)"/>
     <use xlink:href="#DejaVuSans-Oblique-61" transform="translate(67.988281 -15.625) scale(0.7)"/>
     <use xlink:href="#DejaVuSans-Oblique-6d" transform="translate(110.883789 -15.625) scale(0.7)"/>
     <use xlink:href="#DejaVuSans-Oblique-70" transform="translate(179.072266 -15.625) scale(0.7)"/>
    </g>
   </g>
   <g id="patch_7">
    <path d="M 23.809743 35.722692 
Q 208.363443 35.722692 392.917143 35.722692 
" style="fill: none; stroke: #000000; stroke-linecap: round"/>
    <path d="M 27.809743 37.722692 
L 23.809743 35.722692 
L 27.809743 33.722692 
" style="fill: none; stroke: #000000; stroke-linecap: round"/>
    <path d="M 388.917143 33.722692 
L 392.917143 35.722692 
L 388.917143 37.722692 
" style="fill: none; stroke: #000000; stroke-linecap: round"/>
   </g>
   <g id="text_6">
    <!-- $t_{end}$ -->
    <g transform="translate(199.663802 32.017157) scale(0.1 -0.1)">
     <defs>
      <path id="DejaVuSans-Oblique-65" d="M 3078 2063 
Q 3088 2113 3092 2166 
Q 3097 2219 3097 2272 
Q 3097 2653 2873 2875 
Q 2650 3097 2266 3097 
Q 1838 3097 1509 2826 
Q 1181 2556 1013 2059 
L 3078 2063 
z
M 3578 1613 
L 903 1613 
Q 884 1494 878 1425 
Q 872 1356 872 1306 
Q 872 872 1139 634 
Q 1406 397 1894 397 
Q 2269 397 2603 481 
Q 2938 566 3225 728 
L 3116 159 
Q 2806 34 2476 -28 
Q 2147 -91 1806 -91 
Q 1078 -91 686 257 
Q 294 606 294 1247 
Q 294 1794 489 2264 
Q 684 2734 1063 3103 
Q 1306 3334 1642 3459 
Q 1978 3584 2356 3584 
Q 2950 3584 3301 3228 
Q 3653 2872 3653 2272 
Q 3653 2128 3634 1964 
Q 3616 1800 3578 1613 
z
" transform="scale(0.015625)"/>
      <path id="DejaVuSans-Oblique-6e" d="M 3566 2113 
L 3156 0 
L 2578 0 
L 2988 2091 
Q 3016 2238 3031 2350 
Q 3047 2463 3047 2528 
Q 3047 2791 2881 2937 
Q 2716 3084 2419 3084 
Q 1956 3084 1622 2776 
Q 1288 2469 1184 1941 
L 800 0 
L 225 0 
L 903 3500 
L 1478 3500 
L 1363 2950 
Q 1603 3253 1940 3418 
Q 2278 3584 2650 3584 
Q 3113 3584 3367 3334 
Q 3622 3084 3622 2631 
Q 3622 2519 3608 2391 
Q 3594 2263 3566 2113 
z
" transform="scale(0.015625)"/>
      <path id="DejaVuSans-Oblique-64" d="M 2675 525 
Q 2444 222 2128 65 
Q 1813 -91 1428 -91 
Q 903 -91 598 267 
Q 294 625 294 1247 
Q 294 1766 478 2236 
Q 663 2706 1013 3078 
Q 1244 3325 1534 3454 
Q 1825 3584 2144 3584 
Q 2481 3584 2739 3421 
Q 2997 3259 3138 2956 
L 3513 4863 
L 4091 4863 
L 3144 0 
L 2566 0 
L 2675 525 
z
M 891 1350 
Q 891 897 1095 644 
Q 1300 391 1663 391 
Q 1931 391 2161 520 
Q 2391 650 2566 903 
Q 2750 1166 2856 1509 
Q 2963 1853 2963 2188 
Q 2963 2622 2758 2865 
Q 2553 3109 2194 3109 
Q 1922 3109 1687 2981 
Q 1453 2853 1288 2613 
Q 1106 2353 998 2009 
Q 891 1666 891 1350 
z
" transform="scale(0.015625)"/>
     </defs>
     <use xlink:href="#DejaVuSans-Oblique-74" transform="translate(0 0.78125)"/>
     <use xlink:href="#DejaVuSans-Oblique-65" transform="translate(39.208984 -15.625) scale(0.7)"/>
     <use xlink:href="#DejaVuSans-Oblique-6e" transform="translate(82.275391 -15.625) scale(0.7)"/>
     <use xlink:href="#DejaVuSans-Oblique-64" transform="translate(126.640625 -15.625) scale(0.7)"/>
    </g>
   </g>
  </g>
 </g>
 <defs>
  <clipPath id="pb57c84c240">
   <rect x="20.69" y="17.195016" width="394.114984" height="172.924984"/>
  </clipPath>
 </defs>
</svg>
